#N canvas 1195 395 655 452 10;
#X obj 354 348 sendOSC;
#X msg 81 234 disconnect;
#X msg 194 200 connect localhost 7777;
#X obj 354 41 vsl 15 128 0 255 0 0 empty empty empty 0 -9 0 10 -262144
-258113 -1 8300 1;
#X msg 354 200 send /dmx/set 1 \$1;
#X obj 380 41 vsl 15 128 0 255 0 0 empty empty empty 0 -9 0 10 -262144
-4034 -1 0 1;
#X obj 406 41 vsl 15 128 0 255 0 0 empty empty empty 0 -9 0 10 -262144
-4160 -1 0 1;
#X obj 431 41 vsl 15 128 0 255 0 0 empty empty empty 0 -9 0 10 -262144
-33289 -1 0 1;
#X msg 380 227 send /dmx/set 2 \$1;
#X msg 406 254 send /dmx/set 3 \$1;
#X msg 431 281 send /dmx/set 4 \$1;
#X obj 194 143 loadbang;
#X connect 1 0 0 0;
#X connect 2 0 0 0;
#X connect 3 0 4 0;
#X connect 4 0 0 0;
#X connect 5 0 8 0;
#X connect 6 0 9 0;
#X connect 7 0 10 0;
#X connect 8 0 0 0;
#X connect 9 0 0 0;
#X connect 10 0 0 0;
#X connect 11 0 2 0;
#X coords 0 -1 1 1 108 160 1 346 20;
